<svg width="1200" height="320" viewBox="0 0 1200 320" fill="none" xmlns="http://www.w3.org/2000/svg" role="img" aria-labelledby="title desc">
  <title id="title">DiskScope logo</title>
  <desc id="desc">DiskScope logo with storage chart and magnifier icon.</desc>
  <rect width="1200" height="320" rx="32" fill="#0B0F14"/>
  <g transform="translate(80 55)">
    <circle cx="105" cy="105" r="88" stroke="#F8FAFC" stroke-width="20"/>
    <path d="M105 105 L105 20 A85 85 0 0 1 185 105 Z" fill="#374151"/>
    <path d="M105 105 L185 105 A85 85 0 0 1 155 170 Z" fill="#E5E7EB"/>
    <path d="M105 105 L105 20 A85 85 0 1 0 155 170 Z" fill="#3B82F6"/>
    <path d="M105 20 V105 L185 105" stroke="#0B0F14" stroke-width="8" stroke-linecap="round" stroke-linejoin="round"/>
    <circle cx="168" cy="168" r="38" fill="#0B0F14" stroke="#F8FAFC" stroke-width="16"/>
    <path d="M195 195 L230 230" stroke="#F8FAFC" stroke-width="18" stroke-linecap="round"/>
  </g>
  <g transform="translate(360 78)">
    <text x="0" y="92" fill="#F8FAFC" font-family="Inter, Geist, Arial, sans-serif" font-size="86" font-weight="750" letter-spacing="-3">DiskScope</text>
    <text x="4" y="150" fill="#94A3B8" font-family="Inter, Geist, Arial, sans-serif" font-size="28" font-weight="650" letter-spacing="8">ADVANCED STORAGE ANALYZER</text>
  </g>
</svg>
