<svg xmlns="http://www.w3.org/2000/svg" viewBox="0 0 1400 360" fill="none">
<rect width="1400" height="360" rx="42" fill="#FFFFFF"/>
<g transform="translate(44 24) scale(.61)">

<g stroke-linecap="round" stroke-linejoin="round">
  <circle cx="234" cy="230" r="142" stroke="#050505" stroke-width="28" opacity="0.98"/>
  <path d="M234 88a142 142 0 0 1 137 105H234V88Z" fill="#7C5CFF"/>
  <path d="M234 193h137a142 142 0 0 1-37 119L234 230v-37Z" fill="#00E5FF" opacity="0.9"/>
  <rect x="129" y="194" width="84" height="60" rx="10" fill="#050505" opacity="0.92"/>
  <rect x="129" y="270" width="52" height="68" rx="10" fill="#050505" opacity="0.55"/>
  <rect x="195" y="270" width="48" height="68" rx="10" fill="#050505" opacity="0.28"/>
  <path d="M335 335 431 431" stroke="#050505" stroke-width="34"/>
  <path d="M362 362 431 431" stroke="#7C5CFF" stroke-width="14" opacity="0.95"/>
</g>
</g>
<text x="390" y="173" fill="#050505" font-family="Inter, Geist, Segoe UI, Arial, sans-serif" font-size="112" font-weight="720" letter-spacing="-4">StorageView</text>
<text x="397" y="238" fill="#52525B" font-family="Inter, Geist, Segoe UI, Arial, sans-serif" font-size="34" font-weight="500" letter-spacing="5">ANALYZE · VISUALIZE · OPTIMIZE</text>
</svg>